<svg width="500" height="500" viewBox="0 0 500 500" xmlns="http://www.w3.org/2000/svg" xmlns:sketch="../../../../../../www.bohemiancoding.com/sketch/ns"><title>anb</title><g sketch:type="MSShapeGroup" fill="none"><path d="M250.003 499.998c138.061 0 249.995-111.926 249.995-250.002 0-138.06-111.933-249.996-249.995-249.996-138.073-.002-250.003 111.934-250.003 249.996 0 138.076 111.929 250.002 250.003 250.002z" fill="#E0AF35"/><path d="M250.003 492.494c133.997 0 242.641-108.626 242.641-242.642 0-134.012-108.644-242.652-242.641-242.652-134.009 0-242.643 108.64-242.643 242.652 0 134.018 108.634 242.642 242.643 242.642z" fill="#fff"/><path d="M250.003 441.988c106.104 0 192.135-86.024 192.135-192.136 0-106.118-86.034-192.132-192.135-192.132-106.118 0-192.135 86.014-192.135 192.132 0 106.112 86.02 192.136 192.135 192.136z" fill="#E0AF35"/><path d="M250.003 437.248c103.492 0 187.397-83.9 187.397-187.396 0-103.498-83.906-187.4-187.397-187.4-103.488 0-187.401 83.902-187.401 187.4.002 103.496 83.914 187.396 187.401 187.396z" fill="#124471"/><path d="M263.293 276.298l-17.91-.162 17.91-1.724" stroke="#000" stroke-width=".5" fill="#fff"/><path d="M237.287 376.094l8.096 4.338 8.378-4.338-8.378-90.42-8.096 90.42zm8.096-92.444l28.784 87.854 6.392 2.536 3.676-5.014-38.852-85.376zm28.882 88.254l-4.182 5.38-6.142-2.588-18.558-90.464 28.882 87.672zm-10.334 3.01l-4.426 3.484-5.808-2.238-8.314-90.778 18.548 89.532zm-18.548-91.264l-28.79 87.854-6.392 2.536-3.672-5.014 38.854-85.376zm-28.896 88.254l4.188 5.38 6.154-2.588 18.554-90.464-28.896 87.672zm10.346 3.01l4.412 3.484 5.816-2.238 8.324-90.778-18.552 89.532z" stroke="#fff" stroke-width=".5" fill="#fff"/><path d="M253.761 376.094l-8.378-90.42-8.096 90.42 8.096 4.338 8.378-4.338z" stroke="#000" stroke-width=".5" fill="#fff"/><path d="M245.383 376.67v-90.778m17.626-10.538l-17.626.784" stroke="#000" stroke-width=".5"/><path d="M262.863 278.154l-17.48-1.578 17.19-.272" stroke="#000" stroke-width=".5" fill="#fff"/><path d="M262.425 277.184l-17.042-.608" stroke="#000" stroke-width=".5"/><path d="M262.883 280.058l-17.5-2.986 17.48 1.082" stroke="#000" stroke-width=".5" fill="#fff"/><path d="M262.843 279.084l-17.46-2.012" stroke="#000" stroke-width=".5"/><path d="M262.551 281.944l-17.168-4.36 17.48 2.43" stroke="#000" stroke-width=".5" fill="#fff"/><path d="M263.081 281.122l-17.698-3.538" stroke="#000" stroke-width=".5"/><path d="M262.521 284.042l-17.138-5.944 17.44 3.906" stroke="#000" stroke-width=".5" fill="#fff"/><path d="M263.429 283.376l-18.046-5.278" stroke="#000" stroke-width=".5"/><path d="M263.145 286.684l-17.762-8.008 17.86 5.798" stroke="#000" stroke-width=".5" fill="#fff"/><path d="M263.263 285.434l-17.88-6.758" stroke="#000" stroke-width=".5"/><path d="M264.041 290.106l-18.658-10.936 17.752 7.528" stroke="#000" stroke-width=".5" fill="#fff"/><path d="M264.151 288.71l-18.768-9.54" stroke="#000" stroke-width=".5"/><path d="M264.817 294.24l-19.434-14.56 18.492 10.31" stroke="#000" stroke-width=".5" fill="#fff"/><path d="M264.881 292.456l-19.498-12.776" stroke="#000" stroke-width=".5"/><path d="M265.271 298.98l-19.888-18.652 19.67 13.976" stroke="#000" stroke-width=".5" fill="#fff"/><path d="M264.757 296.208l-19.374-15.88" stroke="#000" stroke-width=".5"/><path d="M265.833 305.358l-20.45-24.3 19.844 17.712" stroke="#000" stroke-width=".5" fill="#fff"/><path d="M265.571 302.024l-20.188-20.966" stroke="#000" stroke-width=".5"/><path d="M266.417 314.294l-21.034-32.518 20.592 23.59" stroke="#000" stroke-width=".5" fill="#fff"/><path d="M265.017 307.538l-19.634-25.762" stroke="#000" stroke-width=".5"/><path d="M269.441 336.626l-24.058-53.774 21.144 31.464" stroke="#000" stroke-width=".5" fill="#fff"/><path d="M267.245 322.332l-21.862-39.48" stroke="#000" stroke-width=".5"/><path d="M280.559 374.038l3.676-5.012-38.852-85.376 28.782 87.854 6.394 2.534z" stroke="#000" stroke-width=".5" fill="#fff"/><path d="M245.383 283.65l34.268 87.666" stroke="#000" stroke-width=".5"/><path d="M263.941 374.698l-18.558-90.466 28.882 87.672-4.182 5.382-6.142-2.588z" stroke="#000" stroke-width=".5" fill="#fff"/><path d="M269.255 374.732l-23.872-90.5" stroke="#000" stroke-width=".5"/><path d="M253.697 376.16l-8.314-90.778 18.548 89.532-4.426 3.484-5.808-2.238z" stroke="#000" stroke-width=".5" fill="#fff"/><path d="M258.953 376.538l-13.57-91.156" stroke="#000" stroke-width=".5"/><path d="M227.473 276.298l17.91-.162-17.91-1.724" stroke="#000" stroke-width=".5" fill="#fff"/><path d="M227.755 275.354l17.628.782" stroke="#000" stroke-width=".5"/><path d="M227.899 278.154l17.484-1.578-17.192-.272" stroke="#000" stroke-width=".5" fill="#fff"/><path d="M228.337 277.184l17.046-.608" stroke="#000" stroke-width=".5"/><path d="M227.875 280.058l17.508-2.986-17.484 1.082" stroke="#000" stroke-width=".5" fill="#fff"/><path d="M227.907 279.084l17.476-2.012" stroke="#000" stroke-width=".5"/><path d="M228.199 281.944l17.184-4.36-17.484 2.43" stroke="#000" stroke-width=".5" fill="#fff"/><path d="M227.673 281.122l17.71-3.538" stroke="#000" stroke-width=".5"/><path d="M228.239 284.042l17.144-5.944-17.456 3.906" stroke="#000" stroke-width=".5" fill="#fff"/><path d="M227.331 283.376l18.052-5.278" stroke="#000" stroke-width=".5"/><path d="M227.607 286.684l17.776-8.008-17.868 5.798" stroke="#000" stroke-width=".5" fill="#fff"/><path d="M227.493 285.434l17.89-6.758" stroke="#000" stroke-width=".5"/><path d="M226.713 290.106l18.67-10.936-17.76 7.528" stroke="#000" stroke-width=".5" fill="#fff"/><path d="M226.609 288.71l18.774-9.54" stroke="#000" stroke-width=".5"/><path d="M225.937 294.24l19.446-14.56-18.502 10.31" stroke="#000" stroke-width=".5" fill="#fff"/><path d="M225.875 292.456l19.508-12.776" stroke="#000" stroke-width=".5"/><path d="M225.471 298.98l19.912-18.652-19.678 13.976" stroke="#000" stroke-width=".5" fill="#fff"/><path d="M226.003 296.208l19.38-15.88" stroke="#000" stroke-width=".5"/><path d="M224.921 305.358l20.462-24.3-19.85 17.712" stroke="#000" stroke-width=".5" fill="#fff"/><path d="M225.185 302.024l20.198-20.966" stroke="#000" stroke-width=".5"/><path d="M224.331 314.294l21.052-32.518-20.594 23.59" stroke="#000" stroke-width=".5" fill="#fff"/><path d="M225.735 307.538l19.648-25.762" stroke="#000" stroke-width=".5"/><path d="M221.315 336.626l24.068-53.774-21.156 31.464" stroke="#000" stroke-width=".5" fill="#fff"/><path d="M223.509 322.332l21.874-39.48" stroke="#000" stroke-width=".5"/><path d="M210.201 374.038l-3.672-5.012 38.854-85.376-28.79 87.854-6.392 2.534z" stroke="#000" stroke-width=".5" fill="#fff"/><path d="M245.383 283.65l-34.272 87.666" stroke="#000" stroke-width=".5"/><path d="M226.829 374.698l18.554-90.466-28.896 87.672 4.188 5.382 6.154-2.588z" stroke="#000" stroke-width=".5" fill="#fff"/><path d="M221.499 374.732l23.884-90.5" stroke="#000" stroke-width=".5"/><path d="M237.059 376.16l8.324-90.778-18.55 89.532 4.412 3.484 5.814-2.238z" stroke="#000" stroke-width=".5" fill="#fff"/><path d="M231.803 376.538l13.58-91.156" stroke="#000" stroke-width=".5"/><path d="M386.788 359.63s-4.334-.578-6.862-3.184c-1.82-1.874-4.632-8.378-4.632-8.378-3.886-8.726-9.326-16.952-18.696-16.952-9.358 0-20.074 10.814-23.958 19.558 0 0-.67 1.296-1.46 1.874-.792.578-2.312.44-2.312.44h-192.545c-3.764 0-6.84 2.934-7.066 6.642v-.01c.224 3.71 3.302 6.656 7.066 6.656h192.545s1.52-.15 2.312.424c.792.578 1.46 1.876 1.46 1.876 3.882 8.744 14.6 19.566 23.958 19.566 9.37 0 14.808-8.216 18.696-16.958 0 0 2.812-6.508 4.632-8.382 2.528-2.594 6.862-3.172 6.862-3.172z" stroke="#000" stroke-width=".5" fill="#B2B2B2"/><path d="M132.931 354.794c1.224-1.164 2.954-1.09 3.754-1.09h193.481s1.804-.21 2.24-.578c.828-.698 1.082-1.3 1.082-1.3 3.388-7.724 14.538-19.282 23.11-19.282 8.57 0 13.872 7.796 17.266 15.524 0 0 1.042 2.654 2.304 5.242m-43.63 10.936l1.816 2.528c3.4 7.734 13.672 19.926 22.244 19.926 8.57 0 13.872-7.788 17.266-15.514 0 0 2.166-5.492 4.04-8.382 1.766-2.708 4.192-3.172 4.192-3.172h1.52c-2.456.866-4.338 2.026-4.338 2.026" stroke="#000" stroke-width=".5"/><path d="M380 359.63s-1.878.708-2.596 2.458c-2.322 5.48-6.212 6.486-8.384 9.096-2.168 2.598-3.462 5.188-5.63 7.22-2.368 2.202-6.792 1.732-6.792 1.732s4.052-1.878 5.354-2.598c1.29-.724 3.31-3.18 3.458-4.778.146-1.578 0-4.318 0-4.318s7.072-.588 8.382-2.318c1.29-1.732 2.596-6.496 2.596-6.496h3.612m-43.476.002h-2.75s3.618-5.638 5.486-7.804c1.888-2.166 4.34-5.638 5.354-7.074 1.004-1.448 2.454-4.338 2.454-4.338l2.018 2.312-2.168 8.232-6.928 2.168-3.466 6.504" fill="#000"/><path d="M346.27 350.242c-.12-.518-.044-.186-.074-.718-.266-5.256 3.772-9.728 9.02-10.002 5.238-.252 9.704 3.784 9.968 9.02.03.548.058 1.084 0 1.602.482-.11 1.036-.172 1.548-.196 5.238-.266 9.706 3.758 9.97 9.01.268 5.236-3.766 9.712-9.004 9.978-.53.028-1.364-.008-1.86-.07.074.498.268 1.216.268 1.742 0 5.242-4.264 9.502-9.51 9.502-5.246 0-9.516-4.26-9.516-9.502 0-.518.04-1.064.128-1.552-.528.076-1.046.076-1.594.076-5.252 0-9.508-4.254-9.508-9.5 0-5.248 4.256-9.518 9.508-9.518.55 0 .132.036.656.128z" stroke="#000" stroke-width=".5" fill="#B2B2B2"/><path d="M363.344 366.386c1.262.706 2.72 1.084 4.266.996 4.388-.22 7.776-3.962 7.544-8.342-.22-4.4-3.954-7.778-8.344-7.55-1.542.072-2.984.614-4.154 1.428.716-1.262 1.062-2.718.982-4.29-.222-4.394-3.964-7.77-8.346-7.542-4.388.218-7.768 3.958-7.548 8.346.056.966.28 1.888.626 2.726-.856-.32-1.788-.49-2.754-.49-4.394 0-7.958 3.558-7.958 7.96 0 4.386 3.562 7.954 7.958 7.954 1.574 0 3.014-.406 4.232-1.206-.75 1.218-1.212 2.696-1.212 4.228 0 4.398 3.56 7.956 7.96 7.956 4.386 0 7.958-3.556 7.958-7.956.004-1.546-.442-2.992-1.21-4.218z" stroke="#000" stroke-width=".5" fill="#124471"/><path d="M132.931 364.462c1.224 1.16 2.954 1.092 3.754 1.092h193.481s1.804.21 2.24.572c.828.698 1.082 1.298 1.082 1.298" stroke="#000" stroke-width=".5"/><path d="M335.148 368.446s-1.582-3.394-3.176-4.05c-1.584-.654-4.766-.436-4.766-.436h-192.467c-1.228 0-3.904-1.588-3.904-3.684 0 0 1.588 2.388 3.904 2.528h192.467s3.974-.292 5.128.578c1.156.864 2.814 5.064 2.814 5.064" fill="#000"/><path d="M323.237 370.468c1.442 0 2.596-1.174 2.596-2.612v-19.856c0-1.432-1.154-2.598-2.596-2.598-1.44 0-2.594 1.166-2.594 2.598v19.856c0 1.438 1.154 2.612 2.594 2.612z" stroke="#000" stroke-width=".5" fill="#B2B2B2"/><path d="M320.643 367.066c0 1.428 1.154 2.606 2.594 2.606 1.442 0 2.596-1.178 2.596-2.606m-5.19-17.83c0-1.446 1.154-2.612 2.594-2.612 1.442 0 2.596 1.166 2.596 2.612" stroke="#000" stroke-width=".5"/><path d="M325.831 365.122c0 1.436-1.154 2.598-2.596 2.598-1.44 0-2.594-1.162-2.594-2.598v.502c0 1.432 1.154 2.602 2.594 2.602 1.442 0 2.596-1.17 2.596-2.602v-.502z" stroke="#000" stroke-width=".5" fill="#000"/><path d="M156.051 352.456c.23-.476.442-.958.654-1.456" fill="#94693C"/><path d="M130.055 344.382c4.394 1.372 9.02-1.738 12.71-4.398l.58.804c-1.616 6.354-1.158 13.64-3.584 19.644l3.002.352.346-1.154c2.168-1.26 4.752-2.904 6.95-4.902 0 0 7.07-2.998 6.576-3.072l2.54-5.548c6.584-4.858 10.05-11.786 13.52-18.37 6.818-17.216 10.74-36.058 11.664-55.478 0 0 1.854-.796 2.2-.22.468.178 4.98-.43 5.86-2.018l3.616.86 4.742-.236c3.268-.832 4.624-2.932 5.25-5.5l2.776-.274 6.186-5.376c-1.602-1.988-2.54-3.286-4.246-5.772 0 0-9.56-12.252-12.392-35.65-1.562-12.928 1.632-35.538 1.632-35.538h4.148c-4.97-2.308-10.866-5.142-14.216-10.116-2.428-12.824 8.088-24.144 2.776-36.626-9.368-15.25-29.932-16.292-44.946-10.75-25.314 14.91-26.474 44.722-30.978 70.722l-4.152 59.058c-1.044 14.446.802 29.002-.584 43.21 3.464-1.146 6.93-3.234 9.358-6.356 2.084 9.71.926 20.692 0 30.502 4.854-.104 8.902-3.698 11.44-7.5l.576.572c-.346 9.708-1.61 18.952-3.926 27.736l.576 1.394zm254.571-56.51c-10.638-33.164-5.552-70.72-12.252-105.392l.578-2.532c-2.082-12.836-8.318-24.04-12.482-36.056-4.852-10.054-9.584-21.73-20.8-27.738-7.396-6.35-18.84-3.24-27.382-1.61-8.44 3.58-20.574 9.818-20.334 21.026-.35 9.132 4.618 16.064 5.542 24.73-.23 10.51-12.768 18.082-19.938 22.242h13.116s2.686 11.234 2.204 25.736c-.444 13.708-2.598 29.1-12.094 44.268-.304.484-4.35 6.55-11.086 13.962l13.702 4.784 1.148-3.688c.326.586.804.576 1.37.872 1.33.708 3.316.328 4.85.476l2.916-.266c1.736-.572 3.35-1.964 3.814-3.924l1.738.572.8.58c1.622.234 4.28.928 5.32-.58l2.194 3.584 1.39 6.124c7.388 19.188 8.084 42.416 27.148 55.464l1.622.806 3.346 1.394 8.91 13.048c2.532 3.246 5.772 4.976 8.888 6.934 1.3.192 3.188 3.994 4.144 2.902l1.408-3.706-2.548-13.292c1.944.848 4.188.71 5.998 1.282l2.906-2.428c-2.546-8.088-3.934-16.874-5.322-25.544v-1.79c6.908 4.454 9.704.986 9.704.986-2.188-8.672-3.578-19.418-4.154-29.702l1.234-.366c.826 1.948 1.874 3.774 3.278 5.45 1.5 1.5 3.466 2.658 5.544 2.198l3.58-.806z" stroke="#000" stroke-width=".5" fill="#94693C"/><path d="M269.007 182.538c-.344-2.402-1.672-6.528-2.486-9.302.938-4.048-2.888-7.856-1.384-11.55-2.542-6.944-3.114-13.87-3.348-21.38-1.052-4.626-1.27-9.594-3.124-13.87-2.192-4.96-8.736-6.66-12.708-7.512-3.968-.852-10.284-1.152-10.284-1.152-1.844-.164-5 .994-4.744 2.384 2.252 3.452 1.954 6.842 1.378 9.646l-5.502 1.406c4.594 1.164 9.182 4.658 8.722 7.056-.69 2.096-4.152 2.456-4.596 2.04 0 0-6.354-5.646-7.178-5.888-.83-.228-3.144-1.932-2.784-1.478.184.214 2.314 2.944 3.898 4.516 1.506 1.492 2.272 3.714 2.272 3.714 1.434 1.484 2.13 2.728 1.944 5.724l-1.958 5.54-1.39 5.322c0 2.776-3.122 5.308-2.772 8.314-1.042 2.194-2.542 4.738-1.964 6.94l-3.928 9.53h51.936z" stroke="#000" stroke-width=".5" fill="#fff"/><path d="M230.931 120.156c2.166 3.452 2.034 6.776 1.378 9.646l-5.502 1.406c4.594 1.164 9.182 4.658 8.722 7.056-.69 2.096-4.152 2.456-4.596 2.04 0 0-6.354-5.646-7.178-5.888-.83-.228-3.144-1.932-2.784-1.478.184.214 2.314 2.944 3.898 4.516 1.506 1.492 2.272 3.714 2.272 3.714-9.496-5.218-13.038-5.886-13.038-5.886l-1.34 1.59c-.528-5.54-1.978-10.744 1.158-15.32 3.148-3.36 11.338-2.196 17.01-1.396z" stroke="#E0AF35" stroke-width=".5" fill="#E0AF35"/><path d="M227.139 141.17c-9.564-4.708-13.038-5.886-13.038-5.886l-1.34 1.59c-.528-5.54-1.978-10.744 1.158-15.32 3.152-3.362 11.342-2.2 17.014-1.398" stroke="#000" stroke-width=".5"/><path d="M227.351 152.78c1.964-2.534 3.514-4.978 4.512-8.89-.464-.356-.464-.816-.932-1.156-.86.37-.922 3.23-1.262 4.736l-2.318 5.31m-4.226-18.378s5.334 3.892 7.858 6.292c2.134.534 4.47-.454 5.09-2.7-.042-1.178-1.704-3.306-3.928-4.796-.878-.384-1.954-1.118-2.954-1.508 1.896 1.648 5.938 3.622 5.058 7.152-1.77 1.686-2.716 1.044-3.724.15l-7.4-4.59m2.77-.426l6.5 2.976c.034-.014 1.356.014 0-.434-5.196-2.308-9.594-8.322-15.714-5.778-2.084 1.164-2.992 4.288-3.918 6.134l1.286-1.548s1.554-2.64 2.548-2.966c4.234-1.384 6.758.282 6.758.282l2.54 1.334m4.596-4.442c-.234.368.482 1.208.136 1.368-1.016.492-3.822.32-5.166 0 .784-.222 3.524-2.416 5.03-1.368m-12.4-8.142c-3.266 2.29-3.556 4.816-4.836 8.396-.348-4.274.994-8.92 4.836-8.396m7.334 18.436c-4.75-3.65-5.394-3.728-10.622-5.724l.588-.844c5.436 2.124 7.56 4.154 7.56 4.154l2.474 2.414m6.884-12.264l.378 1.074c2.384-2.602 1.212-5.542-1.756-8.482l1.058 2.884c.98 3.26.128 3.678.32 4.524" fill="#000"/><path d="M232.883 129.952c2.43-.35 2.556 3.884 5.562 3.648 2.428.122 4.624-1.474 5.824-3.94 1.958.226 3.634.456 5.328-.442l.296-.354c-1.718.636-3.616.284-5.518-.32-2.386-.762-4.782-2.486-6.796-2.494-2.028-.14-2.878 1.244-3.814 3.302l-.882.6z" stroke="#000" stroke-width=".5" fill="#000"/><path d="M236.975 127.906c-.112 1.272-.482 2.562 1.186 3.218 2.096.424 2.378-.868 2.848-2.324.262-.15 1.738.388 1.754.59-.208.93-.92 2.526-2.348 3.11-1.022.276-1.792.328-2.712-.036-1.408-.534-2.606-2.428-2.606-3.542-.232-.698 1.18-1.236 1.878-1.016" fill="#fff"/><path d="M219.085 182.538c1.37-.268 2.502-1.676 3.876-2.018.578.688-2.314 1.322-1.74 2.018h-2.136m11.186 0c1.376-.464 3.208-2.834 4.824-2.834.928.704-1.45 1.796-1.104 2.834h-3.72m16.872 0c1.158-.584 2.628-2.94 4.128-2.59 1.382.46.036 1.496-.546 2.59h-3.582m16.176 0l-1.042-1.59c-.116-.578-1.302-1.462-.838-1.82 1.272.818 1.272 1.82 3.568 3.41h-1.688m-26.26-21.206c-1.152 1.278-2.776 1.844-4.388 1.964-1.044.234-1.742-.338-2.542-.806v-.578c1.96.462 3.464 1.044 5.31 0 .584-.226.926-.806 1.62-.58m10.866-.922c-2.542 4.366-4.132 3.65-7.08 1.156-.576-.234 3.032 1.016 3.896.66l3.184-1.816m6.346 15.6c-1.73.348-3.118 2.89-4.96 1.158-1.158-.922-1.968-2.08-1.734-3.58 1.734 1.15 3.474 1.5 5.314.576 1.726-2.664 4.738-3.584 4.738-6.93.8 3.11-1.51 6.354-3.358 8.776m-14.672 1.386c-1.268-.34-3 .808-4.506 0-1.5-1.038-1.264-2.884-1.848-4.388 1.848 1.96 3.354 2.542 5.548 2.196 1.846-2.084 4.85-4.278 6.01-6.94-1.048 3.352-3.002 6.354-5.204 9.132m-13.284 0c-1.042-.924-2.08.694-3.118-.228-.584-1.844-1.158-4.046-.584-6.12.812 1.374.23 3.57 2.308 4.156 3.126.346 3.354-3.476 5.782-4.398-.344 2.672-3.23 4.282-4.388 6.59m-105.152 10.056c5.886-11.902 9.816-24.726 12.476-38.02-3.01 13.178-5.082 26.692-12.476 38.02" fill="#000"/><path d="M196.851 208.26c-1.044-1.046-.468-3.124.576-4.176l-.576 4.176" fill="#94693C"/><path d="M119.499 249.712c-1.056 12.652-1.936 25.342-2.272 38.16 2.988-12.076 3.82-25.148 4.516-38.16h-2.244m12.826 0c-.034 1.496-.056 3.012-.078 4.534-.922 3.576-3.806 6.356-5.312 9.7-4.848 10.4-2.768 23.926-13.52 31.66 1.044 1.508 1.968-.342 3.002-.568 7.856-4.398 6.592-14.11 10.518-20.8.464 10.392.114 21.606 1.388 31.308 3.236-11.554 1.042-24.954.926-37.086 1.152-4.17 3.468-7.858 6.002-11.45.092-2.444.17-4.87.25-7.298h-3.176m13.662 0c-.466 8.388-1.068 16.704-2.066 24.756-4.274 4.848-5.432 11.082-6.356 17.21-4.164 9.71-3.24 22.3-14.446 28.306l-.346.812c4.858-.226 8.896-5.896 11.098-9.702 2.194-6.008 4.268-12.014 6.466-18.03.582 11.902-.924 24.386-1.964 35.82 4.86-13.166 4.738-29.12 4.164-43.792.574-3.352 1.734-6.592 4.736-8.668 0 0 .52-12.518 1.108-26.718h-2.394m14.164.006c-.468 14.75-1.536 29.578-2.942 43.928-7.392 11.45-10.518 24.614-13.286 38.03-1.156 5.306-6.47 9.12-11.094 11.32h-3.35l.578 1.392c5.318.448 9.358-2.432 13.292-5.554-.694-4.394 3.344-6.936 4.162-10.744 1.85-5.324 2.422-11.214 5.306-16.184-1.158 10.752-2.076 21.836-3.692 31.9 3.118-5.434 3.118-12.364 4.508-18.49 1.042-8.324 2.422-16.294 3.006-24.73l3.928-3.926s1.062-26.002 1.93-46.942h-2.346m11.19 0c-.744 20.488-2.038 41.77-3.266 62.188-9.478 9.828-6.476 24.726-13.404 35.596-.53 2.75-2.36 5.18-4.61 7.232l6.644-3.728c4.274-9.824 7.358-21.14 10.448-31.818l4.728-5.55c.916-22.22 1.832-43.068 2.118-63.918h-2.658m13.252-.002c-.484 7.648-1.386 15.388-.234 22.548l1.102-.108c1.094-6.688 1.264-14.748 1.512-22.44h-2.38m5.638 0c-.402 5.682-1.158 11.398-1.704 17.006 0 0 .812.428.912.042 1.492-5.266 1.768-11.374 1.938-17.048h-1.146m5.62 0c-.202 7.29-1.182 16.214-3.432 20.31l3.616.86c1.212-6.878 1.598-13.842 1.822-21.168h-2.006m6.24-.002c-.364 5.476-1.166 10.964-1.316 16.2 1.804-4.298 2.38-10.394 2.722-16.2h-1.406m5.972 0l.094.2c-.85 3.154-1.308 11.816-2.13 15.234l4.516 4.056c0-2.764 11.832-1.468 11.832-1.468-6.05-6.098-10.604-12.134-14.026-18.02h-.286m.284-.002c-7.954-13.658-9.828-26.41-10.368-36.892-.212-8.42.312-15.112.312-15.112l-2.486 6.62c-3.002 1.846-5.548.338-8.322-.81-1.5-2.08-3.928-4.276-2.542-7.168.92-1.504 2.08-2.306 3.002-3.35-2.664.922-6.122 4.616-9.36 1.612-1.376-3.346-4.39-6.348-2.768-10.51.922-1.262 1.268-2.892 2.768-3.934-1.5-.34-3.346.922-4.728-.46-2.082-3.234-1.734-6.696-1.392-10.626 1.274-1.384 1.966-2.774 3.58-3.586-1.848-.808-4.398-2.534-4.164-5.196.348-5.776 1.976-11.094 6.128-15.254l-.226-.342c-4.86 4.39-10.986 7.854-17.572 5.546-2.2-.928-2.422-3.352-3.004-5.204-3.11 5.204-9.35 6.478-15.254 6.93-3.23-.226-5.082-3.936-8.082-4.728 1.378 2.298 3.81 5.31 6.466 6.932-1.152 12.356-5.776 23.22-11.09 33.86-2.66 3.228-7.276 2.77-11.098 3.578 1.388 1.968 4.624 1.504 6.016 3.58-1.228 18.248-3.14 36.344-4.666 54.518h2.244c.484-9.156.908-18.282 1.954-27.014l1.39-27.504 5.542-3.004 4.976 5.206c-1.81 17.476-2.94 34.376-3.28 52.318h3.174c.528-16.66.818-33.106 1.718-50.36 1.386-1.036 3.936-.352 5.32-.572 1.384 3.456 2.892 6.932 5.774 9.48-1.152 13.286-1.542 27.454-2.324 41.452h2.394c.774-18.592 1.664-40.074 1.664-40.074.346-.698 1.042-.576 1.61-.576 1.738 4.616 2.55 11.548 8.556 12.476.27 9.268.22 18.708-.062 28.174h2.344c.582-14.14 1.07-25.972 1.07-25.972 1.62 2.648 3.702 6.924 7.516 6.706h.8c-.106 6.3-.298 12.748-.54 19.268h2.658c.07-5.492.114-10.98.084-16.498 3.126 1.62 5.66 5.544 10.056 4.38l.576.818c.264 3.694.136 7.486-.12 11.298h2.38c.112-3.722.246-7.364.51-10.726.808.348 2.428 1.274 3.004 2.542.038 2.706-.074 5.442-.258 8.182h1.144c.078-2.584.134-5.092.272-7.364l4.16.802c.092 1.838.114 4.11.044 6.562h2.006l.146-5.412 4.162-3.12c.198 2.812.122 5.674-.072 8.53h1.406c.176-3.098.298-6.116.482-8.75 0 0 3.474 7.44 4.082 8.75h.288" fill="#000"/><path d="M196.035 346.108c-1.612-.354-3.118-.58-4.736-.93 6.354-24.154 7.398-50.84 14.214-74.534 2.424-2.076 1.734-6.634 11.784-7.85.642 1.494-6.298 1.214-7.62 4.742 6.812-4.398 10.622-2.778 14.67.342 12.364 9.356 4.39 27.266 4.736 40.214l-.92 1.954-.81 27.164c-1.498 2.774-.574 6.59-.808 9.932-3.004-.922-6.584-4.498-10.284-1.964h-1.042l-19.184.93zm13.306-94.812l-2.094 14.3s4.624-2.75 5.924-3.182c1.298-.424 3.968-.352 3.968-.352s-3.032-3.69-4.11-5.128c-1.086-1.446-3.688-5.638-3.688-5.638z" stroke="#000" stroke-width=".5" fill="#94693C"/><path d="M167.735 334.658c-1.862 2.208-3.012 4.864-5.556 6.356 1.386-4.958 6.01-9.82 8.088-15.242 7.394-16.646 10.63-35.132 12.138-54.308.916 22.762-4.396 44.362-14.67 63.194m20.21-169.974c-.802 4.394 0 8.792 2.544 12.25-7.168-6.126-3.93-15.248-2.772-23.116 1.386-5.54 5.198-11.548 2.542-17.448 6.008 9.132-2.192 18.612-2.314 28.314" fill="#000"/><path d="M160.213 154.402c-2.422 14.098-9.476 26.234-18.026 37.788-1.616 1.498-4.272 1.612-6.354.81-1.506-.702-2.886-2.306-3.812-3.586 4.162-10.972 8.444-21.958 10.166-33.844 5.438.568 9.704-3.012 13.864-5.904.818 1.854 2.78 3.228 4.162 4.736m12.016 12.25c-2.072 3.928-4.04 8.438-2.77 13.054-5.548 8.094-9.708 17.568-18.024 23.812-2.898 1.376-5.2-1.508-6.122-3.588-3.706-7.74 6-12.598 7.734-19.41 4.04-8.208 7.516-16.53 9.484-25.538 3.812.342 6.928-1.276 9.698-3.592-1.272 4.518-5.076 11.446 0 15.262" fill="#94693C"/><path d="M149.121 170.236c-1.156-.936 0-2.664.348-3.93 1.618-3.242 2.544-6.822 3.344-10.518l.234.814-3.926 13.634m5.086 24.73c-2.08 1.502-3.35 4.728-6.464 3.578-.582-2.314 2.538-1.85 3.694-3.118 6.354-9.594 11.32-19.876 15.718-30.506-3.478 10.404-8.214 20.224-12.948 30.046m21.61-20.568l4.39-2.782c-.464 2.08-2.658 2.426-4.39 2.782m-31.084 8.082c-2.082 2.43-2.43 6.932-6.128 8.326 4.046-5.322 6.474-12.366 8.904-18.954.802 4.158-2.43 6.354-2.776 10.628" fill="#000"/><path d="M174.431 194.61c.922 1.738 4.388 1.738 3.354 4.17-4.632 6.582-7.976 14.434-14.794 19.41-3.474 1.388-6.016-2.546-7.974-4.734-1.042-1.858-1.5-3.818-1.734-6.018 8.202-7.048 11.788-16.52 17.22-24.958 5.078 2.08.578 8.55 3.928 12.13" fill="#94693C"/><path d="M181.369 190.45l4.382-5.768c-1.038 2.3-2.082 4.276-4.382 5.768m11.32 9.13l1.734-3.814-.354 2.428-1.38 1.386" fill="#000"/><path d="M187.143 206.284h.802v1.392l-12.478 19.41c-1.158 1.148-3.118 1.39-4.618.808-2.426-1.726-5.558-4.04-5.558-7.164 7.404-5.426 9.834-13.978 14.338-21.15 1.384 2.778 3.466 7.052 7.514 6.704" fill="#94693C"/><path d="M160.213 214.028h-2.422c-.582-1.734 2.196-1.04 3.008-2.194 3.228-3.474 5.658-7.28 8.082-11.086-2.084 4.73-5.082 10.16-8.668 13.28" fill="#000"/><path d="M194.069 208.828c-.69 3.926 4.974 5.554 3.124 9.708-4.164 4.962-5.666 11.554-10.284 16.636-3.24 2.546-6.01-1.156-8.67-2.54-.688-.922-1.154-1.968-1.378-2.994 6.12-6.25 9.124-13.642 12.818-20.81 1.27 1.158 2.894 0 4.39 0" fill="#94693C"/><path d="M173.039 224.082c-1.036.698-1.958 1.504-3.346 1.384 4.268-3.354 7.392-8.898 10.284-13.634l-6.938 12.25" fill="#000"/><path d="M200.527 229.892c-.368 1.894-2.264 4.124-4.26 5.28-.922-.234-1.73.116-2.42.814-.234.46.222.808.576 1.036 1.846 0 3.466-.802 4.972-1.85.46-.806 1.348-1.796 1.818-2.594.174 1.438.908 2.974 1.376 4.636-.254.382-1.972 1.292-2.622 1.546-3.35 2.656-7.162 0-10.054-1.738l-.81-.802 9.404-17.322c.158 3.394 1.226 7.556 2.02 10.994" fill="#94693C"/><path d="M180.207 231.822c4.97-1.958 6.816-7.514 9.472-11.676-2.536 4.162-2.89 11.91-9.472 11.676m-13.524-86.78c1.052-1.968 1.272-4.274 3.24-5.894.458 2.314-1.5 4.16-3.24 5.894m9.36 11.092c-.114-2.074 2.194-2.654 3.35-4.744-.114 1.39-2.42 3.238-3.35 4.744m116.831 52.224c-.294 5.918.886 33.556-23.22 58.058l13.742 4.874 1.148-3.688c.326.586.804.576 1.37.872 1.33.708 1.002.476 2.542.614l5.224-.402c1.736-.572 3.35-1.964 3.814-3.924l1.738.572.8.58c1.622.234 4.28.928 5.32-.58l2.194 3.584 1.39 6.124c7.388 19.188 8.084 42.416 27.148 55.464l1.622.806 3.346 1.394 8.91 13.048c2.532 3.246 5.772 4.976 8.888 6.934 1.3.192 3.188 3.994 4.144 2.902l1.408-3.706-2.548-13.292c1.944.848 4.188.71 5.998 1.282l2.906-2.428-1.39.35c-2.888-1.4-6.586-1.858-9.126-4.512-11.332-12.26-9.25-30.042-20.798-42.176-4.394-23.814-5.894-48.888-9.484-73.15 3.7-3.462 2.436-10.282 8.324-11.674 3.816 20.924 3.816 43.448 6.352 64.942 2.312.926 4.626 2.422 6.124 4.626 1.272 17.452 3.358 34.544 10.06 49.686-.81-5.894-2.89-11.906-3.704-18.026l-2.196-21.382c2.888 8.908 4.414 19.924 10.516 23.982 6.614 4.396 9.704.986 9.704.986-1.034-1.392-1.958-.468-3.228-1.05-18.956-7.038-9.37-31.424-23.926-42.754l-5.198-56.044-1.156-7.966c2.082-3.814 2.77-8.204 3.582-12.478l5.894-1.736.468 3.58 3.108 60.198 2.782 1.976c1.734 13.976 1.734 29.002 7.168 41.362-3.464-11.666-3.582-25.768-4.164-38.596 7.978 5.9 6.01 16.3 10.516 23.806l1.234-.366c-4.332-10.322-2.174-23.43-13.942-30.138-1.39-21.612-2.782-43.216-4.162-64.832.69-1.266.928-2.77 1.962-3.926 1.496 3.584 6.012 4.276 9.358 4.162 3.584 29.122 3.698 59.628 10.638 87.354-3.812-28.878-6.014-59.152-8.904-88.74 1.73-.696 3.588-1.852 4.74-3.58-.458-1.044.804-1.626 0-2.544-2.89 2.544-6.584 4.734-10.284 3.348l-3.118-3.348c-6.126-10.978-11.098-22.538-16.068-34.084 1.5.568 4.39.342 6.126-.81 2.082-1.86 3.926-4.17 4.972-6.704-3.124 2.534-8.204 4.842-12.488 3.118l-.574-.584c-5.314 4.056-12.586 7.75-19.648 4.98-1.266 3.336-2.312 7.734-6.348 8.892l-3.118.226c.804 1.968 2.884 4.048 3.936 6.128.688 3.35 1.26 8.088-.592 11.102-1.148 3.228-7.396 1.374-4.964 6.12.35 3.352.692 7.272-1.382 9.944-3.008 3.224-6.826 6.006-10.52 5.538-.578 3.118-4.944 8.9-4.944 8.9s.152 3.66-.022 6.806m6.002-43.674c3.932-12.47-10.046-22.996-2.77-35.466-4.044 12.59 10.172 22.996 2.77 35.466m28.89-27.966l-.234.234c-.922-.582-1.844-2.084-1.386-3.012.584.592 1.62 1.514 1.62 2.778" fill="#000"/><path d="M339.444 143.308c5.192 11.212 9.466 22.88 15.24 33.86.236 2.658-1.26 4.732-2.764 6.706-1.85 1.27-4.162 2.076-6.354 1.376-9.126-10.97-15.718-22.756-21.724-35.002 6.118.68 11.208-2.778 15.602-6.94z" stroke="#000" stroke-width=".5" fill="#94693C"/><path d="M315.519 149.432c-1.958 0-4.504-1.734-6.582-3.006l.562-1.156c2.67-.35 4.64 2.546 6.02 4.162m49.468 23.576c-3.816-8.906-7.752-18.146-10.3-27.16 4.052 8.78 6.706 18.142 10.3 27.16m-15.606 8.322c-3.244-.922-4.514-5.206-6.358-8.094-3.704-7.166-8.328-13.98-9.936-22.186 3.578 10.864 11.55 19.876 16.294 30.28" fill="#000"/><path d="M342.442 187.452c.928 4.162-.232 8.096-2.202 11.33-1.732 2.188-4.036 3.812-6.692 3.118-6.472-7.978-12.72-16.064-16.876-24.964-.58-2.196 1.382-4.04 1.62-6.126.69-4.39-.808-7.97-1.85-11.668 2.2-2.082 3.808-4.85 4.626-7.748 7.274 11.67 11.67 25.078 21.374 36.058z" stroke="#000" stroke-width=".5" fill="#94693C"/><path d="M311.707 165.494c.69.924 1.162 1.96 1.39 3.126-2.428-1.734-5.322-3.354-6.94-5.896 2.318-.348 3.822 1.5 5.55 2.77m26.348 31.9c-1.042 1.606-2.66-.702-3.36-1.628-5.768-10.048-12.126-19.756-15.47-30.846 6.348 10.856 11.436 22.192 18.83 32.474m-34.668-12.484c-3.354-2.314-5.544-5.666-6.936-9.132 4.046 1.034 6.13 5.552 6.936 9.132" fill="#000"/><path d="M314.139 177.978c4.728 9.7 10.4 18.95 17.79 27.5.936 3.704-1.386 6.122-3.35 8.55-1.966 1.616-4.398 2.314-7.166 1.968-5.784-6.244-9.362-13.402-13.636-20.228 4.276-4.848 4.394-11.552 5.322-17.788h1.04" fill="#94693C"/><path d="M324.179 207.676c1.164 1.384 4.286.34 3.816 2.998-1.616.924-2.994-.35-4.384-.81-3.816-6.002-7.858-12.008-10.514-18.6 3.348 5.664 7.156 10.744 11.082 16.412" fill="#000"/><path d="M304.771 196c3.472 7.968 8.21 15.49 14.096 22.536.358 3.344-2.306 6.006-4.972 7.748-2.646.924-5.65-.698-6.348-3.352-2.426-8.792-14.212-15.958-7.748-26.12 1.618-.226 3.246-.464 4.972-.812" fill="#94693C"/><path d="M310.907 219.344c.922 1.846 4.722 1.612 3.232 4.394-2.31.342-4.28-1.392-5.202-3.35l-6.938-17.686 8.908 16.642" fill="#000"/><path d="M306.393 227.312c-1.622 3.936-5.896 5.092-9.706 5.546-2.254-.156-6.016-1.014-6.544-2.272.734-3.274 1.888-8.76 2.292-13.208 3.004 3.814 2.862 11.904 8.982 12.26.928-.358.466-1.282.582-1.976-4.97-2.194-6.728-9.018-9.392-13.408.362-2.23.292-4.418.452-6.712.482-.488 1.498-1.032 2.592-1.258l10.742 21.028" fill="#94693C"/><path d="M304.421 235.172c2.432-1.842 2.782-8.206 6.944-4.158l3.344-.57 1.154 3c2.082 24.378 6.708 48.07 10.748 71.298 7.284 6.466 8.664 15.714 12.484 23.794-10.63-6.808-16.526-18.716-20.452-29.914-3.704-8.91-5.776-18.376-9.144-27.396 0 0-4.264-24.496-5.078-36.054z" stroke="#000" stroke-width=".5" fill="#94693C"/><path d="M296.107 236.568c.812 7.968 2.656 15.484 4.738 22.988.808-3.466-1.27-6.47-1.392-10.058-.458-4.042-.926-8.202-1.958-12.128.926-.696 1.958-.922 3.12-.8 1.51 9.702 3.476 19.288 5.78 28.764-.922-2.076-3.47-.46-4.974-1.386-10.392-5.32-5.08-18.602-8.892-27.378l.344-1.396 3.234 1.394" fill="#94693C"/><path d="M361.796 350.384l-2.132-13.174c-6.592-7.276-9.592-16.188-12.48-24.956-.922 7.73 1.504 15.13 2.544 22.178h-.348c-4.384-9.822-4.978-21.14-6.126-32.242-1.854-3.108-3.702-7.154-7.402-8.78-2.302-24.728-6.704-48.53-8.892-73.266h-5.89l-2.426 7.748c2.886 25.078 5.894 50.032 11.316 74.068 10.982 13.864 9.02 33.632 24.96 44.954l6.876 3.47z" stroke="#000" stroke-width=".5" fill="#94693C"/><path d="M285.415 264.278c.328.588.8.998 1.36 1.306 1.336.708 3.17.766 4.708.902 1.85-.34 3.466-2.426 3.812-3.924-4.39-7.514-3.32-19.294-4.818-28.078-.39.124-.954-.836-1.342-.39-.642 1.892-1.786 4.39-1.874 5.564 1.042 6.122 3.064 12.964 1.908 19.548-1.85-5.662-.264-12.562-2.57-17.882-1.568 3.546-2.368 5.13-3.932 8.054l2.348 13.762c.076.44.216.814.4 1.138m-4.56-11.868l1.968 9.638s-1.342-2.23-3.502-2.514c-2.166-.294-3.538-.222-3.538-.222l5.072-6.902" fill="#94693C"/><path d="M279.233 344.724c-3.344 1.496-6.926 2.418-10.52 3.568l-.794-16.056-.932-.926-1.85-20.768v-.838l-.922-1.036c2.306-14.21-7.166-29.004 1.734-41.376 3.232-2.186 7.044-3.928 11.32-2.76 2.426.798 4.394 2.76 6.364 4.382-.12-1.154-1.156-2.662-2.206-3.808-2.196-2.898-5.892-3.004-8.886-3.584 2.306-.922 4.616-.922 6.924 0 3.234 1.388 5.666 4.624 7.516 7.392 2.532 8.436 2.89 17.564 4.972 26.122 2.998 16.756 7.388 32.93 10.626 49.688-2.782-.342-5.086.574-7.858.224l-15.488-.224z" stroke="#000" stroke-width=".5" fill="#94693C"/><path d="M294.723 344.95c-16.058-10.744-12.826-30.046-18.256-45.526-.81-4.16-1.62-8.438-2.774-12.474.692 13.282 4.85 25.768 7.162 38.588 2.078 3.232 1.736 7.624 2.542 11.33-1.042 2.774-1.852 5.54-4.164 7.858l15.49.224zm-79.506.228l-4.732-11.894c.802-5.316 1.728-10.87 1.386-16.296-2.124 9.964-5.512 22.09-15.836 29.122l19.182-.932z" stroke="#000" stroke-width=".5" fill="#000"/><path d="M227.123 277.584v.236c-2.778-.82-6.476-1.39-8.906-3.82-3.344 1.852-7.734 2.078-11.666 1.852v-.46c4.042-1.5 8.088-2.662 11.666-5.09 2.55 2.896 6.594 5.198 8.906 7.282m-10.28 11.094l1.61.228c3.014 6.006 6.82 11.674 8.9 18.032-6.468-3.928-6.93-12.136-10.508-17.686l-4.744 27.156c1.156-14.096 4.274-27.27 5.892-41.018.46 4.732-.808 8.778-1.15 13.288" fill="#000"/><path d="M279.007 277.234c5.428 12.478 9.014 26.226 14.326 38.02-6.244-12.136-11.21-25.19-14.904-38.02h.578z" stroke="#000" stroke-width=".5" fill="#000"/><path d="M215.451 282.324c-4.966 13.174-5.89 28.072-16.408 39.056l-.468-.582 11.102-23.224 5.776-18.378v3.128m1.154 29.346c2.77 8.09 6.12 15.836 9.126 23.798-5.662-6.58-9.474-15.012-9.704-23.798h.578m57.89 6.936c-1.27 3.236-2.192 6.58-4.972 9.132l5.544-14.906c1.05 1.148.466 4.154-.572 5.774" fill="#000"/><path d="M292.875 208.358s1.08 28.734-16.238 49.968c-18.992 23.286-31.254 27.584-31.254 27.584s-12.264-4.298-31.26-27.584c-17.28-21.186-16.25-49.968-16.25-49.968h95.002z" fill="#fff"/><path d="M241.695 284.064v-75.79h-8.082v70.064c.002 0 3.626 2.89 8.082 5.726zm-30.952-30.34v-45.45h-7.47v30.436c-.002 0 3.568 9.8 7.47 15.014zm14.946 17.468v-62.916h-7.484v54.896c0-.002 3.198 3.66 7.484 8.02zm23.374 12.872v-75.79h8.084v70.064s-3.626 2.89-8.084 5.726zm30.944-30.34v-45.45h7.476v30.436c.002 0-3.568 9.8-7.476 15.014zm-14.94 17.468v-62.916h7.478v54.896c0-.002-3.188 3.66-7.478 8.02z" fill="#B11E39"/><path d="M290.727 182.538s2.894 13.008 2.212 25.736c.01-.072-95.124-.072-95.124 0 .058-12.91 2.202-25.736 2.202-25.736h90.71z" fill="#76BAE4"/><path d="M40.446 303.164l6.854 9.71-2.01 5.908-4.844-15.618z" stroke="#000" stroke-width=".5" fill="#000"/><path d="M40.44 303.164l-.144 11.884 4.994 3.734-4.85-15.618z" stroke="#000" stroke-width=".5" fill="#fff"/><path d="M28.944 318.56l11.352-3.512 4.994 3.734-16.346-.222z" stroke="#000" stroke-width=".5" fill="#000"/><path d="M28.944 318.564l11.254 3.822 5.092-3.604-16.346-.218z" stroke="#000" stroke-width=".5" fill="#fff"/><path d="M40.036 334.266l.162-11.88 5.092-3.604-5.254 15.484z" stroke="#000" stroke-width=".5" fill="#000"/><path d="M40.036 334.266l7.114-9.512-1.86-5.972-5.254 15.484z" stroke="#000" stroke-width=".5" fill="#fff"/><path d="M58.39 328.566l-11.24-3.812-1.86-5.972 13.1 9.784z" stroke="#000" stroke-width=".5" fill="#000"/><path d="M58.39 328.566l-6.85-9.698-6.25-.086 13.1 9.784z" stroke="#000" stroke-width=".5" fill="#fff"/><path d="M58.654 309.352l-7.114 9.516-6.25-.086 13.364-9.43z" stroke="#000" stroke-width=".5" fill="#000"/><path d="M58.654 309.352l-11.354 3.522-2.01 5.908 13.364-9.43z" stroke="#000" stroke-width=".5" fill="#fff"/><path d="M461.612 297.262l.59 11.862-4.872 3.912 4.282-15.774z" stroke="#000" stroke-width=".5" fill="#000"/><path d="M461.612 297.262l-6.5 9.938 2.218 5.836 4.282-15.774z" stroke="#000" stroke-width=".5" fill="#fff"/><path d="M443.66 304.078l11.462 3.122 2.208 5.836-13.67-8.958z" stroke="#000" stroke-width=".5" fill="#000"/><path d="M443.66 304.078l7.434 9.268 6.236-.31-13.67-8.958z" stroke="#000" stroke-width=".5" fill="#fff"/><path d="M444.578 323.278l6.516-9.932 6.236-.31-12.752 10.242z" stroke="#000" stroke-width=".5" fill="#000"/><path d="M444.578 323.278l11.11-4.214 1.642-6.028-12.752 10.242z" stroke="#000" stroke-width=".5" fill="#fff"/><path d="M463.122 328.324l-7.434-9.26 1.642-6.028 5.792 15.288z" stroke="#000" stroke-width=".5" fill="#000"/><path d="M463.122 328.324l-.57-11.864-5.222-3.424 5.792 15.288z" stroke="#000" stroke-width=".5" fill="#fff"/><path d="M473.658 312.256l-11.106 4.204-5.222-3.424 16.328-.78z" stroke="#000" stroke-width=".5" fill="#000"/><path d="M473.658 312.256l-11.456-3.132-4.872 3.912 16.328-.78z" stroke="#000" stroke-width=".5" fill="#fff"/><path d="M265.137 310.542v-.022c4.744-4.396 7.742-10.056 7.976-16.062l-.234-.232c-1.734 5.542-5.542 10.164-7.742 15.478v.838z" stroke="#000" stroke-width=".5" fill="#000"/><path d="M273.113 284.52h-.234l-.338-4.396.338-.118.234 3.702v.812m8.664-10.52c-3.234.698-6.47-.11-9.236-1.386-2.66 1.732-5.554 3.238-8.786 3.584 1.844-2.43 5.77-4.044 8.316-6.928 2.664 2.768 6.008 4.154 9.706 4.73" fill="#000"/><path d="M209.413 353.706s2.386-9.392 9.318-9.392c6.928 0 6.312 1.544 7.812 2.83 1.354 1.17 2.74 2.992 2.222 4.04-.048.102-.49.562-.574.644-.25.232-3.19 1.878-3.844 2.058-1.854.54-5.472.668-7.568.828-2.814.212-5.058-1.218-5.782-1.218-.718-.002-1.584.21-1.584.21z" stroke="#000" stroke-width=".5" fill="#E0AF35"/><path d="M212.093 353.348s-1.23-1.376.282-3.106c.23-.256 1.158-.364 1.634-1.342.866-1.778 3.998-2.496 5.586-2.342 2.388.21 7.586 4.4 7.586 4.4s1.094 1.89-.078 1.088c-.94-.644-1.584-1.582-3.034-1.304-1.442.288-3.968 2.17-5.704 1.668-1.732-.506-3.322-2.026-4.048-1.814-.712.218-2.224 2.752-2.224 2.752" fill="#000"/><path d="M228.765 350.958c1.448.792 2.676 1.954 3.834 3.682 1.15 1.736 1.008 5.504-.082 8.024-.814 1.912-5.85 4.332-5.85 4.332s2.57-5.28 2.316-7.366c-.22-1.812-1.378-2.818-2.376-3.828-.854-.862-2.538-1.81-2.538-1.81s2.026-1.876 3.182-2.166c1.154-.292 1.514-.868 1.514-.868z" stroke="#000" stroke-width=".5" fill="#E0AF35"/><path d="M226.829 352.118l.86-.292s2.752 2.128 3.536 4.49c.334 1 .868 2.662-.292 5.408-.688 1.64-1.946 2.958-1.946 2.958s1.086-2.092 1.81-4.834c.33-1.272-.078-3.192-1.738-5.136-.842-.994-2.23-2.594-2.23-2.594" fill="#000"/><path d="M200.385 353.348s-.708 3.632-.5 6.636c.212 3.176 2.596 6.514 4.906 6.944 2.84.53 4.55.288 4.55.288-.936-.868-3.754-2.968-3.97-5.126-.22-2.176.718-2.972.938-4.412.22-1.44.788-2.166.788-2.166s-1.946-1.082-3.1-1.52c-1.16-.426-3.612-.644-3.612-.644z" stroke="#000" stroke-width=".5" fill="#E0AF35"/><path d="M203.347 353.858s-1.084 2.228-1.084 4.04c0 3.174.218 4.258.866 5.558.552 1.122 3.4 2.672 3.4 2.672s-2.172-1.664-2.534-4.268c-.362-2.59.148-5.774.794-7.292l-1.442-.71" fill="#000"/><path d="M203.129 345.618s-7.586.29-9.176-.074c-1.584-.366-1.804-.652-3.096-.58-1.3.076-7.226 1.376-8.53 3.826-1.298 2.458-2.166 3.898-2.086 4.338.064.44 2.456.73 3.246 1.014.794.29 3.77.718 4.402.866 3.758.86 8.352-.3 6.718-.08 2.096-.286 4.552-1.22 5.058-1.724.502-.514 1.3-1.228 1.588-2.02.286-.8 1.876-5.566 1.876-5.566zm10.978.354s-3.174-7.072-5.498-9.74c0 0-3.458 4.548-4.466 6.494-1.016 1.954-4.046 7.004-3.978 7.738.078.716-.576 2.164-.358 2.448.214.29.576.364 2.31.654 1.734.292 2.598.796 3.322 1.36.718.586 2.308.732 2.814.664.51-.078 1.158-1.884 1.158-1.884s1.16-3.32 1.958-4.468c.786-1.17 2.738-3.266 2.738-3.266z" stroke="#000" stroke-width=".5" fill="#E0AF35"/><path d="M210.863 350.094s-1.226-1.444-2.252-1.882c-1.008-.428-2.814-.504-2.814-.504s-1.44.582-1.51 1.154c-.07.58-.07 1.232.224 1.442.282.228.932.656 2.376 1.02 1.448.362 3.034.928 3.034.928l.942-2.158" fill="#000"/><path d="M180.817 353.494s-.778 3.64.362 7.72c.716 2.598 2.49 4.912 4.404 5.712 1.902.792 7.222.138 7.222.138s-3.54-.568-5.492-4.118c-.96-1.754-.792-4.338-.646-5.564.142-1.228.646-2.378.646-2.378s-2.968-.61-3.542-.72c-.72-.144-2.954-.79-2.954-.79z" stroke="#000" stroke-width=".5" fill="#E0AF35"/><path d="M183.123 354.208s-.212 2.972-.072 4.624c.15 1.664 1.514 3.322 1.514 3.322s-.576-2.24-.576-3.468c0-1.22.22-4.322.22-4.322l-1.086-.156m17.48-5.052s-4.194-.212-6.29-.08c-2.096.16-3.174.654-3.604.946-.436.282-3.326.792-3.326.792l-3.614 3.47 2.384.428c2.606-.428.936-1.954 5.568-2.242 2.464-.138 7.436-1.656 8.662-2.45l.22-.864" fill="#000"/><path d="M283.357 344.312s-1.46.09-4.126.412c-2.656.314-7.638.1-8.938 1.398-1.3 1.308-5.128 3.034-6.43 5.704-1.292 2.676-1.514 4.196-1.016 4.622.512.432.658.292 2.11.506 1.44.228 3.124.838 5.05 1.162 3.472.57 5.112-1.45 6.422-2.094 1.734-.876 5.346-1.88 6.578-2.104 1.224-.212.72-3.534.72-3.534l-.37-6.072zm-13.86 13.804s-.208 3.386.938 5.554c1.16 2.168 2.108 2.242 3.466 2.608 1.372.36 3.138.286 3.138.286s-2.192 2.462-4.578 2.014c-2.376-.424-5.944-3.378-6.936-4.906-1.584-2.456-1.514-6.792-1.514-6.792s2.634.352 3.402.586c.938.29 2.084.65 2.084.65z" stroke="#000" stroke-width=".5" fill="#E0AF35"/><path d="M281.635 347.564c0 .288-1.442 1.592-1.442 1.592l-4.552 1.376-3.398 1.516-3.174 2.162s-1.732 1.812-1.876 2.108c-.142.278-.292 1.068-.292 1.068l2.386.654s-.034-.684.676-1.276c.578-.476 1.208-1.002 1.628-1.324.948-.726 2.602-1.582 3.472-1.808.862-.22 3.174-1.514 3.534-1.804.358-.292 1.22.078 2.172-.578.94-.654.866-3.686.866-3.686m-14.732 9.82s-.216 3.326.216 4.552c.434 1.222 1.736 2.458 1.736 2.458s-.878-2.536-.938-3.756c-.05-.796.278-2.882.278-2.882l-1.292-.372" fill="#000"/><path d="M292.307 344.63c1.244-.164 2.33-.026 5.286-.53 2.966-.506 4.904.044 6.942.578 3.03.79 6.384 3.098 7 3.898.734.946 1.654 4.548 0 5.34-1.658.794-3.688 1.948-5.05 1.452-1.376-.51-5.782-.728-7.798-1.084-2.028-.368-3.476-.214-3.476-.214l-2.904-9.44zm19.66 9.076s.656 1.884.72 4.258c.078 2.384-.576 4.192-1.228 5.708-.79 1.85-4.692 3.396-4.692 3.396s1.594-2.458 2.17-4.264c.562-1.808-.074-4.26-.294-5.2-.212-.946-1.08-2.164-1.08-2.164s.868-.138 1.594-.434c.718-.294 2.81-1.3 2.81-1.3z" stroke="#000" stroke-width=".5" fill="#E0AF35"/><path d="M309.875 354.794s.578.434 1.016 2.452c.358 1.658.208 4.038.208 4.038s.794-2.598.572-4.102c-.212-1.524-1.002-2.752-1.002-2.752l-.794.364" fill="#000"/><path d="M285.969 339.984c-1.878.036-3.97 1.294-5.198 2.742-1.224 1.45-1.016 4.042-.514 5.712.514 1.654 1.954 4.472 3.404 6.062 1.44 1.584 3.97 2.68 6.352 2.532 2.376-.154 5.92-.376 5.988-2.238.074-1.882-.646-4.264-1.15-6.072-.508-1.806-1.32-3.76-2.526-5.28-1.946-2.45-2.892-3.526-6.356-3.458z" stroke="#000" stroke-width=".5" fill="#E0AF35"/><path d="M294.637 348.146s.366 1.01.366 1.294c0 .29.058 1.234.058 1.234s-2.23 1.662-3.31 1.512c-1.088-.14-3.112-.284-4.412-1.592-1.298-1.292-2.166-3.1-2.166-3.1s4.408 1.806 6.432 1.74c.786-.042 3.032-1.088 3.032-1.088" fill="#000"/><path d="M287.553 356.448s1.59 1.882 1.658 3.402c.08 1.514-.138 3.174-.786 4.266-.654 1.066-2.166 3.676-2.166 3.676s1.512.214 3.174-.794 3.684-2.678 4.348-4.906c.588-2.11.268-5.774.268-5.774s-2.52.776-4.616.776c-.794-.002-1.88-.646-1.88-.646z" stroke="#000" stroke-width=".5" fill="#E0AF35"/><path d="M290.807 358.542s-.08 2.74-.214 3.612c-.144.87-.868 2.53-.868 2.53s1.52-2.174 1.73-3.468c.212-1.3 0-2.958 0-2.958l-.648.284m18.938-10.586c1.272 1.386 2.652 3.116 1.622 5.084-.118.342-.458.234-.812.234-1.272-1.51-.574-4.512-3.35-4.744-3.466-1.96-8.676.924-11.906-1.616 3.58-.808 8.314-.808 12.478 0l1.968 1.042" fill="#000"/><path d="M142.247 373.498h-4.624v-6.072h43.194v6.072h-4.622v6.494h4.622v9.102h-19.644v-9.102h3.464v-6.494h-10.828v6.494h3.458v9.102h-19.644v-9.102h4.624v-6.494z" stroke="#000" stroke-width=".5" fill="#B2B2B2"/><path d="M179.225 367.426v5.056h-4.626v7.51m4.626 0v8.096h-18.052m3.464-14.59v-1.016h-12.426v7.51m3.472 0v8.096h-18.06m4.624-14.59v-1.016h-4.476" stroke="#000" stroke-width=".5"/><path d="M268.057 182.538l-3.758-9.53 1.162-.142-2.888-9.248 1.292.14-3.606-7.794 1.444.284-1.588-7.656h.86l-1.432-5.768 1.432-.15-2.308-7.364 1.45 6.784-1.734-.286 1.878 5.916-1.446-.284 2.16 7.946-1.872-.148 3.468 7.656s-2.312-1.014-1.736-.148c.572.872 3.61 9.536 3.61 9.536l-1.734.14 4.044 10.116h1.302" fill="#000"/><path d="M70.862 353.45c.42.794.826 1.616 1.302 2.362.49.752 1.064 1.452 1.61 2.156l-8.55 5.518c-1.656 1.068-4.152 2.6-5.554 3.884-1.298 1.22-2.072 2.068-2.426 3.832-.286 1.538.064 2.944.924 4.266 1.802 2.8 3.798 3.64 7.094 3.004 1.676-.308 5.106-2.522 6.582-3.48l9.12-5.888c.196.436.438.884.688 1.266.25.386.554.796.868 1.142l-10.708 6.926c-3.496 2.12-6.606 4.176-10.794 2.442-2.222-.874-3.984-2.674-5.264-4.66-2.354-3.632-3.754-8.322-.566-11.962.966-1.094 2.188-2.092 3.394-2.87l12.28-7.938zm14.394 21.788l2.294 2.708c-.972 7.466-1.704 15.058-2.846 22.636l12.816-10.798c.242.406.542.806.84 1.166.302.35.654.716 1.006 1.03l-18.796 15.836-1.946-2.36c.866-6.154 1.738-11.954 2.392-17.796l.61-5.612-13.256 11.166c-.278-.384-.542-.8-.844-1.164-.3-.356-.676-.688-1.002-1.03l18.732-15.782zm17.634 20.026c.584.692 1.136 1.392 1.776 2.03.634.62 1.35 1.182 2.032 1.764l-17.318 17.42c-.584-.672-1.144-1.376-1.784-2.008-.632-.63-1.342-1.19-2.03-1.768l17.324-17.438zm-1.276 32.294c-.63-.642-1.236-1.308-1.92-1.89-.672-.588-1.418-1.094-2.142-1.628l14.386-16.674c-1.922-1.662-3.798-2.948-5.368-3.974.376-.33.788-.64 1.136-1.044.318-.376.574-.832.844-1.258l13.966 12.044c-.382.342-.788.652-1.116 1.032-.354.404-.596.85-.874 1.282-1.434-1.57-2.876-3.144-4.522-4.572l-14.39 16.682zm33.752-5.166c-.35.364-.76.734-1.056 1.14-.294.41-.514.912-.752 1.354-1.606-1.512-3.402-3.166-6.408-5.264l-4.524 6.238 3.02 2.188c1.3.944 2.57 1.696 3.75 2.318-.348.372-.746.738-1.042 1.146-.292.412-.526.9-.76 1.354-.966-.922-2.076-1.9-3.376-2.846l-3.024-2.188-5.338 7.364c2.972 2.12 5.054 3.408 6.994 4.458-.354.36-.752.734-1.052 1.142-.29.404-.524.906-.758 1.346l-11.05-8.004 14.324-19.754 11.052 8.008zm13.122 7.982c6.486 4.084 6.548 10.276 3.616 15.36-4.048 7.012-11.386 8.322-17.748 4.652l-8.676-5.02 12.202-21.124 10.606 6.132zm-17.114 15.888l2.626 1.52c4.282 2.47 8.78 2.21 12.976-5.04 3.358-5.832 1.926-9.722-2.444-12.244l-3.036-1.762-10.122 17.526zm70.904 22.95c-1.44 2.494-2.744 4.496-3.876 6.798-.556-.15-1.076-.31-1.642-.428-.56-.114-1.128-.146-1.704-.218l14.77-22.426c.454.146.868.268 1.322.352.456.094.888.144 1.354.158l5.088 26.34c-1.002-.258-1.966-.556-2.994-.752-1.016-.2-2.02-.29-3.058-.412-.306-2.764-.584-5.3-1.072-7.832l-8.188-1.58zm7.79-.732l-1.54-8.798-4.892 7.564 6.432 1.234zm21.632 12.63c-.882-.164-1.76-.346-2.656-.436-.886-.084-1.798-.056-2.692-.062l2.04-21.948c-2.536-.232-4.802-.196-6.684-.108.116-.492.278-.99.32-1.53.05-.488-.014-1.002-.038-1.506l18.368 1.704c-.116.496-.272.978-.312 1.484-.052.542.006 1.046.034 1.558-2.09-.454-4.164-.896-6.342-1.104l-2.038 21.948zm114.899-28.244c.4 2.848.598 5.236 1.116 7.748-.532.228-1.044.398-1.552.664-.518.26-.996.57-1.48.87l-2.076-26.778c.448-.152.84-.312 1.264-.526.408-.208.778-.432 1.162-.706l20.168 17.696c-.958.408-1.902.768-2.83 1.228-.922.478-1.78 1.032-2.664 1.556-1.94-1.994-3.708-3.826-5.662-5.53l-7.446 3.778zm5.728-5.354l-6.618-6.006.768 8.974 5.85-2.968zm21.218-30.53c.454-.212.928-.404 1.348-.69.418-.286.794-.666 1.174-1.008 6.328 7.352 11.39 13.35 16.394 18.572-.866.502-1.736.958-2.562 1.526-.822.552-1.512 1.15-2.3 1.776-3.428-4.56-7.1-8.704-10.638-12.96.826 6.066 1.668 12.108 2.686 18.136-.418.194-.812.416-1.126.75-4.672-2.8-10.134-5.804-15.542-8.93 2.856 5.682 5.178 10.118 7.898 14.328-.516.274-1.024.476-1.502.806-.47.318-.822.688-1.264 1.062-2.968-6.68-6.678-14.202-10.758-22.39.458-.22.908-.394 1.316-.676.406-.282.766-.648 1.14-.986 5.302 3.206 10.772 6.242 16.272 9.31-.716-5.656-1.35-12.02-2.536-18.626zm17.2-14.266c.278.426.538.9.868 1.282.334.386.758.724 1.14 1.062-1.842 1.198-3.886 2.562-6.614 5l5.01 5.85 2.836-2.428c1.218-1.042 2.24-2.112 3.128-3.114.268.434.542.902.866 1.294.34.374.764.718 1.146 1.044-1.136.732-2.336 1.572-3.558 2.626l-2.83 2.43 5.92 6.91c2.75-2.408 4.476-4.128 5.96-5.778.268.434.54.91.86 1.292.33.376.764.708 1.142 1.054l-10.364 8.88-15.876-18.536 10.366-8.868zm2.108-1.92l5.324-5.464c1.182-1.202 2.958-3.126 4.564-3.65 2.2-.708 4.106-.36 5.842 1.346 2.52 2.452 2.534 5.616.718 8.498 3.828.994 7.748 1.712 11.63 2.494l2.572.558c-.808.722-1.636 1.41-2.408 2.212-.758.764-1.428 1.604-2.124 2.428l-8.37-2.206c-1.06-.302-2.94-.726-4.472-1.112l-.172.182 8.228 8.03c-.68.59-1.374 1.156-2.006 1.802-.626.632-1.17 1.352-1.738 2.04l-17.588-17.158zm12.012 4.21c2.878-2.442 2.904-5.024.264-7.604-.364-.346-.778-.706-1.418-1.122-2.518-1.668-4.194.454-5.722 2.014l6.876 6.712zm2.474-19.606c.64-.632 1.292-1.25 1.876-1.934.572-.694 1.06-1.448 1.576-2.178l18.826 15.794c-.63.646-1.282 1.258-1.868 1.946-.574.682-1.066 1.444-1.582 2.174l-18.828-15.802zm34.5-11.75l2.062 2.428c-.356 2.4-1.47 4.718-2.862 6.672-4.448 6.254-11.668 8.23-17.642 3.97-7.622-5.418-7.358-13.142-2.828-19.498 1.378-1.926 3.534-3.906 5.67-4.938.802.966 1.672 1.854 2.526 2.808l-.288.404c-2.344-.046-4.786 1.042-6.14 2.94-3.442 4.84-.198 10.098 4.092 13.148 4.992 3.554 10.24 3.594 13.442-.896 1.288-1.814 1.85-4.584 1.53-6.778l.438-.26zm1.566-9.164c1.924 2.136 3.422 4.008 5.252 5.806-.31.476-.636.912-.912 1.416-.292.498-.498 1.03-.748 1.554l-16.66-21.064c.284-.368.522-.728.752-1.134.22-.412.408-.804.568-1.244l26.612 3.438c-.564.876-1.152 1.698-1.66 2.604-.508.902-.904 1.83-1.354 2.784-2.704-.586-5.204-1.116-7.776-1.444l-4.074 7.284zm1.778-7.634l-8.854-1.292 5.638 7.018 3.216-5.726zm-426.7-72.676l-.384-5.018c7.3-7.804 14.416-15.958 22.022-23.736l-23.718 1.838c.05-.668.042-1.382-.006-2.042-.048-.666-.156-1.366-.312-2.018l34.774-2.694.286 4.31c-6.08 6.384-11.888 12.346-17.482 18.542l-5.348 5.972 24.536-1.9c0 .666-.05 1.376 0 2.034.056.666.212 1.368.314 2.026l-34.682 2.686zm22.574-46.238c3.72 1.688 6.734 3.258 10.134 4.55-.136.808-.306 1.554-.384 2.364-.078.818-.056 1.626-.084 2.444l-33.67-17.852c.166-.654.272-1.256.334-1.904.072-.66.078-1.27.036-1.938l36.53-10.73c-.24 1.462-.522 2.86-.666 4.326-.14 1.47-.126 2.904-.166 4.38-3.86.804-7.404 1.538-10.924 2.578l-1.14 11.782zm-2.06-10.924l-12.226 3.368 11.332 5.892.894-9.26zm19.368-28.888c-.414 1.214-.866 2.406-1.172 3.634-.312 1.238-.476 2.502-.682 3.764l-30.332-7.584c-.878 3.506-1.306 6.698-1.604 9.346-.662-.272-1.316-.59-2.058-.778-.692-.166-1.416-.196-2.132-.268l6.348-25.394c.666.272 1.322.59 2.01.766.74.18 1.47.208 2.182.28-1.076 2.818-2.138 5.644-2.902 8.654l30.342 7.58zm-28.684-25.14c.542-1.166 1.124-2.294 1.562-3.488.438-1.194.74-2.444 1.078-3.672l32.724 12.082c-.54 1.164-1.122 2.3-1.566 3.494-.434 1.194-.732 2.43-1.074 3.666l-32.724-12.082zm45.996-16.412c-5.352 9.886-14.772 13.394-24.924 7.904-8.9-4.822-12.586-15.204-6.554-26.338 6.904-12.742 17.916-11.634 24.878-7.926 8.738 4.67 12.532 15.396 6.6 26.36zm-19.604 1.18c5.808 3.144 13.408 3.846 17.042-2.866 3.732-6.88-1.49-13.692-8.904-17.716-5.776-3.124-13.85-4.018-17.48 2.682-3.364 6.216-.674 12.472 9.342 17.9zm4.3-44.514l3.21-3.876c10.674-.542 21.462-1.44 32.342-1.75l-18.338-15.174c.506-.448.994-.952 1.422-1.47.416-.51.83-1.08 1.178-1.662l26.868 22.25-2.798 3.294c-8.814.354-17.136.604-25.456 1.172l-8.002.568 18.956 15.694c-.46.476-.996.95-1.406 1.478-.434.494-.8 1.104-1.186 1.652l-26.79-22.176zm48.34-17.496c1.5 3.792 2.564 7.016 4.108 10.316-.656.492-1.296.912-1.914 1.428-.622.542-1.178 1.138-1.766 1.704l-11.76-36.258c.566-.342 1.064-.696 1.568-1.128.506-.434.938-.864 1.372-1.372l33.706 17.718c-1.186.874-2.374 1.684-3.488 2.636-1.13.95-2.108 1.996-3.166 3.024-3.33-2.1-6.382-4.046-9.63-5.75l-9.03 7.682zm6.122-9.29l-11.128-6.086 4.04 12.116 7.088-6.03zm26.526-7.214c3.742-2.36 6.734-4.674 9.466-6.82.292.652.568 1.378.954 1.988.376.596.912 1.166 1.376 1.704l-16.282 10.298-18.502-29.256c1.122-.596 2.28-1.144 3.36-1.832 1.074-.666 2.064-1.478 3.09-2.252l16.538 26.17zm32.64-43.15c-1.926-2.138-4.362-3.04-7.056-1.976-3.738 1.464-4.448 3.978-3.384 6.676 2.514 6.392 16.432-.45 20.698 10.396 2.382 6.056-1.12 12.456-8.454 15.338-2.6 1.024-5.632 1.506-8.416.952-.212-2.202-.476-4.398-.994-6.548l.9-.348c1.994 2.99 5.314 3.92 8.58 2.636 2.926-1.152 4.884-3.83 3.594-7.094-2.968-7.578-15.998.718-20.474-10.69-2.138-5.438-.17-11.412 7.024-14.238 3.408-1.342 6.938-1.25 8.364-.672.034 1.746.17 3.494.336 5.284l-.718.284zm28.356-14.914c.08.708.122 1.49.298 2.174.178.696.514 1.39.788 2.058-3.1.376-6.546.852-11.554 2.236l2.736 10.584 5.112-1.316c2.216-.566 4.184-1.292 5.944-2 .078.71.12 1.49.302 2.188.172.68.508 1.384.792 2.044-1.888.226-3.956.546-6.168 1.122l-5.122 1.314 3.222 12.508c5.006-1.344 8.29-2.444 11.192-3.624.078.718.12 1.492.298 2.188.18.69.51 1.39.79 2.046l-18.756 4.842-8.626-33.532 18.752-4.832zm40.08 23.876l-.634 4.472c-2.852 1.89-6.376 2.898-9.766 3.268-10.814 1.192-19.732-4.574-20.876-14.928-1.458-13.192 6.98-20.21 17.998-21.426 3.334-.362 7.474.05 10.58 1.342-.264 1.774-.376 3.514-.59 5.328l-.702.084c-2.174-2.53-5.616-4.092-8.898-3.728-8.394.924-10.892 9.338-10.078 16.764.952 8.636 5.874 14.232 13.65 13.38 3.14-.354 6.59-2.362 8.63-4.786l.686.23zm8.046-29.118c1.264.184 2.524.418 3.792.496 1.274.086 2.548.008 3.826-.012l-.922 14.416c-.186 2.792-.542 6.944-.26 9.616.294 2.514.602 4.112 2.322 6.006 1.52 1.62 3.408 2.408 5.638 2.542 4.724.312 7.366-1.25 9.424-5.552 1.054-2.18 1.43-7.962 1.588-10.448l.982-15.376c.65.142 1.356.242 2.028.278.648.042 1.366.034 2.032-.022l-1.154 18.066c-.518 5.782-.812 11.058-6.318 14.374-2.866 1.806-6.416 2.288-9.76 2.084-6.144-.39-12.666-2.75-14.126-9.468-.422-2.016-.538-4.26-.408-6.292l1.316-20.708zm42.788 4.084l10.542 2.492c2.326.554 5.954 1.308 7.772 2.898 2.466 2.146 3.434 4.728 2.638 8.094-1.152 4.844-4.99 7.174-9.834 7.074 1.602 5.396 3.6 10.666 5.478 15.964l1.196 3.53c-1.46-.448-2.906-.946-4.44-1.306-1.484-.364-3.01-.562-4.51-.812l-3.428-11.78c-.434-1.506-1.276-4.114-1.922-6.248l-.346-.086-3.762 15.884c-1.208-.404-2.412-.836-3.646-1.128-1.246-.298-2.5-.44-3.772-.632l8.034-33.944zm3.654 17.69c5.072 1.728 8.232-.134 9.438-5.234.168-.69.294-1.442.338-2.528.18-4.298-3.622-4.782-6.638-5.492l-3.138 13.254zm29.83-8.62c1.158.524 2.292 1.108 3.488 1.532 1.198.442 2.446.726 3.672 1.068l-11.88 32.782c-1.168-.522-2.312-1.1-3.506-1.538-1.194-.432-2.446-.722-3.67-1.058l11.896-32.786zm15.038 44.256c-1.09-.654-2.16-1.35-3.308-1.916-1.134-.556-2.342-.98-3.538-1.442l13.788-28.074c-3.238-1.59-6.274-2.684-8.798-3.524.404-.594.852-1.164 1.198-1.86.308-.624.488-1.34.706-2.018l23.502 11.542c-.408.59-.858 1.164-1.17 1.804-.34.68-.516 1.384-.736 2.066-2.534-1.634-5.072-3.274-7.844-4.644l-13.8 28.066zm26.048-1.776c.542-7.562 1.634-15.126 2.336-22.83 1.204.942 2.382 1.924 3.638 2.792 1.266.858 2.606 1.582 3.928 2.362-.44 3.084-1.018 6.626-1.528 9.908-.466 3.132-.856 5.882-.792 6.846 2.94-.886 10.812-5.736 14.84-8.214.618.54 1.254 1.042 1.962 1.518.686.462 1.382.882 2.112 1.25-6.692 3.318-13.304 6.256-19.624 9.834l-8.856 12.982c-.986-.802-1.954-1.648-2.996-2.358-1.052-.722-2.188-1.304-3.294-1.946l8.274-12.144zm30.73 30.02c-3.722 1.674-6.892 2.898-10.116 4.58-.526-.634-.966-1.256-1.526-1.854-.55-.594-1.18-1.114-1.772-1.682l35.678-13.392c.37.55.752 1.026 1.202 1.502.456.492.91.896 1.432 1.314l-16.15 34.478c-.94-1.15-1.792-2.294-2.8-3.366-1.012-1.086-2.088-2.018-3.164-3.026 1.95-3.428 3.748-6.564 5.3-9.89l-8.084-8.664zm9.55 5.696l5.574-11.384-11.922 4.574 6.348 6.81zm19.776 47.564c-3.552-3.146-6.874-6.382-9.31-10.134-5.846-8.996-6.53-19.954 3.49-26.458 10.624-6.89 21.076-2.64 27.468 7.206 2.382 3.666 3.82 7.572 4.064 11.968-1.748.284-3.514.822-5.076 1.596l-.386-.594c1.588-3.822 1.084-7.854-1.102-11.22-4.626-7.126-13.33-6.442-20.498-1.792-7.426 4.822-9.416 11.442-5.198 17.926 1.38 2.134 2.962 3.286 4.24 3.916l9.958-6.482c.612 1.12 1.17 2.27 1.872 3.336.69 1.066 1.512 2.058 2.286 3.068l-11.808 7.664zm40.72 9.808c-.696.194-1.454.37-2.104.656-.662.296-1.288.746-1.896 1.134-.886-3.01-1.938-6.32-4.146-11.014l-9.978 4.452 2.162 4.832c.936 2.084 1.972 3.918 2.972 5.522-.686.202-1.45.372-2.104.67-.644.284-1.284.738-1.88 1.122-.544-1.816-1.208-3.814-2.152-5.902l-2.158-4.824-11.784 5.268c2.166 4.718 3.808 7.772 5.452 10.434-.688.208-1.456.378-2.108.662-.642.298-1.272.744-1.884 1.126l-7.914-17.688 31.604-14.132 7.918 17.682zm3.822 9.58l1.304 4.86c-5.718 9.024-11.212 18.354-17.228 27.416l22.962-6.214c.08.664.214 1.374.386 2 .172.638.412 1.32.68 1.93l-33.67 9.102-1.08-4.18c4.792-7.41 9.396-14.34 13.73-21.472l4.158-6.858-23.764 6.418c-.12-.648-.204-1.366-.382-2.002-.178-.638-.456-1.302-.676-1.926l33.58-9.074zm-16.354 72.456l-4.462-.722c-1.824-2.904-2.76-6.434-3.058-9.834-.966-10.832 4.996-19.638 15.378-20.56 13.218-1.164 20.048 7.414 21.036 18.45.298 3.338-.214 7.47-1.568 10.552-1.764-.304-3.514-.456-5.322-.704l-.064-.702c2.566-2.118 4.202-5.542 3.912-8.83-.74-8.402-9.102-11.08-16.542-10.416-8.66.764-14.358 5.554-13.666 13.348.28 3.146 2.228 6.648 4.606 8.738l-.25.68zm8.094 14.12c6.794-3.378 13.86-6.29 20.858-9.61-.202 1.522-.458 3.036-.546 4.55-.108 1.526-.054 3.054-.054 4.582-2.878 1.196-6.222 2.496-9.306 3.724-2.934 1.192-5.496 2.246-6.296 2.808 2.254 2.088 10.44 6.384 14.626 8.594-.154.808-.258 1.61-.31 2.478-.06.814-.06 1.626-.018 2.444-6.252-4.072-12.14-8.278-18.434-11.904l-15.68-1.008c.184-1.262.422-2.528.514-3.8.066-1.264.004-2.542-.016-3.812l14.662.954zm-208.417 196.806c-.068.498-.184 1.042-.184 1.542.004.504.12 1.042.186 1.538-2.188-.28-4.612-.56-8.278-.492l.008 7.706 3.726-.006c1.608 0 3.076-.134 4.394-.326-.06.506-.166 1.036-.166 1.542.006.504.102 1.038.18 1.542-1.324-.18-2.796-.32-4.404-.318l-3.734.008.01 9.094c3.65-.032 6.092-.212 8.276-.504-.074.496-.178 1.038-.178 1.542.002.496.106 1.042.176 1.534l-13.642.02-.024-24.4 13.654-.022zm-69.254 15.252c-.834-.336-1.658-.686-2.516-.952-.852-.26-1.75-.414-2.626-.6l6.364-21.104c-2.438-.728-4.666-1.146-6.528-1.434.21-.458.468-.912.62-1.434.146-.468.184-.986.262-1.482l17.662 5.322c-.21.46-.462.904-.602 1.39-.16.526-.202 1.028-.276 1.538-1.958-.862-3.902-1.708-5.998-2.346l-6.362 21.102zm114.425 4.682c-7.822 1.696-14.092-1.756-15.84-9.792-1.524-7.044 2.372-13.858 11.186-15.77 10.086-2.188 14.602 4.274 15.832 9.754 1.536 6.894-2.5 13.926-11.178 15.808zm-9.732-10.04c.996 4.6 4.146 9.024 9.454 7.874 5.454-1.18 6.706-7.162 5.442-13.036-.998-4.566-4.266-9.346-9.568-8.194-4.916 1.068-7.05 5.428-5.328 13.356zm-20.66-5.508c-.806-1.898-2.246-3.082-4.322-2.994-2.882.118-3.956 1.658-3.864 3.742.204 4.922 11.26 3.542 11.61 11.908.2 4.666-3.676 8.192-9.33 8.426-2.002.088-4.176-.294-5.938-1.322.372-1.544.708-3.1.862-4.68l.692-.024c.652 2.494 2.686 3.904 5.206 3.8 2.256-.1 4.214-1.458 4.104-3.978-.238-5.838-11.028-3.262-11.392-12.052-.176-4.196 2.558-7.79 8.106-8.018 2.626-.116 5.002.778 5.832 1.5-.384 1.194-.7 2.418-1.006 3.668l-.56.024zm-93.364-13.036c.068-2.062-.738-3.742-2.656-4.542-2.662-1.11-4.286-.166-5.082 1.76-1.894 4.55 8.71 7.966 5.496 15.698-1.792 4.314-6.79 5.876-12.014 3.702-1.852-.768-3.662-2.032-4.826-3.708.99-1.244 1.952-2.51 2.758-3.876l.636.272c-.462 2.538.786 4.674 3.114 5.642 2.086.862 4.434.458 5.398-1.874 2.25-5.394-8.618-7.612-5.236-15.736 1.612-3.876 5.606-5.98 10.732-3.846 2.43 1.004 4.206 2.816 4.652 3.822-.85.918-1.654 1.896-2.46 2.9l-.512-.214zm142.601 7.674l8.4-2.992 1.118 2.458-8.616 3.068 3.98 11.176-4.524 1.612-8.248-23.16 13.138-4.68 1.118 2.458-8.832 3.146 2.466 6.914z" fill="#000"/></g></svg>